<?xml version="1.0" encoding="UTF-8" standalone="no"?>
<!-- Created with Inkscape (http://www.inkscape.org/) -->

<svg
   xmlns:dc="http://purl.org/dc/elements/1.1/"
   xmlns:cc="http://creativecommons.org/ns#"
   xmlns:rdf="http://www.w3.org/1999/02/22-rdf-syntax-ns#"
   xmlns:svg="http://www.w3.org/2000/svg"
   xmlns="http://www.w3.org/2000/svg"
   xmlns:sodipodi="http://sodipodi.sourceforge.net/DTD/sodipodi-0.dtd"
   xmlns:inkscape="http://www.inkscape.org/namespaces/inkscape"
   width="210mm"
   height="297mm"
   viewBox="0 0 744.09448819 1052.3622047"
   id="svg4217"
   version="1.1"
   inkscape:version="0.91 r13725"
   sodipodi:docname="images.svg">
  <defs
     id="defs4219" />
  <sodipodi:namedview
     id="base"
     pagecolor="#ffffff"
     bordercolor="#666666"
     borderopacity="1.0"
     inkscape:pageopacity="0.0"
     inkscape:pageshadow="2"
     inkscape:zoom="0.49497475"
     inkscape:cx="267.22604"
     inkscape:cy="422.60145"
     inkscape:document-units="px"
     inkscape:current-layer="layer1"
     showgrid="false"
     inkscape:window-width="1280"
     inkscape:window-height="718"
     inkscape:window-x="0"
     inkscape:window-y="1"
     inkscape:window-maximized="1" />
  <metadata
     id="metadata4222">
    <rdf:RDF>
      <cc:Work
         rdf:about="">
        <dc:format>image/svg+xml</dc:format>
        <dc:type
           rdf:resource="http://purl.org/dc/dcmitype/StillImage" />
        <dc:title></dc:title>
      </cc:Work>
    </rdf:RDF>
  </metadata>
  <g
     inkscape:label="Layer 1"
     inkscape:groupmode="layer"
     id="layer1">
    <g
       id="g4814">
      <rect
         y="242.3622"
         x="85.714287"
         height="264.28571"
         width="264.28571"
         id="rect4804"
         style="opacity:1;fill:#e6e6e6;fill-opacity:1;stroke:none;stroke-width:1;stroke-miterlimit:4;stroke-dasharray:none;stroke-dashoffset:0;stroke-opacity:1" />
      <g
         transform="matrix(1.1654667,0,0,1.1654667,-39.856912,-43.704194)"
         id="g4806">
        <g
           id="g48"
           transform="matrix(1.25,0,0,-1.25,146.21181,378.6351)"
           style="fill:#000000">
          <path
             d="m 0,0 c 10.361,-17.656 41.476,-25.036 66.814,-24.444 35.18,0.854 64.556,14.59 62.112,31.293 -0.488,3.351 -1.492,5.333 -4.973,7.783 C 131.623,-1.235 94.147,-11.342 66.657,-12.014 42.75,-12.643 6.335,-5.343 -1.763,15.766 -4.032,11.168 -1.683,2.887 0,0"
             style="fill:#000000;fill-opacity:1;fill-rule:nonzero;stroke:none"
             id="path50"
             inkscape:connector-curvature="0" />
        </g>
        <g
           id="g52"
           transform="matrix(1.25,0,0,-1.25,231.88869,329.13247)"
           style="fill:#000000">
          <path
             d="M 0,0 C 15.196,0.082 26.531,2.366 36.535,6.615 37.476,2.509 37.183,-3.167 35.49,-4.474 33.577,-6.701 27.366,-8.706 24.82,-9.267 17.458,-10.945 8.868,-12.532 -0.073,-12.68 c -47.845,0.538 -70.837,20.693 -71.198,38.316 -0.38,20.055 27.439,33.16 69.185,33.275 17.883,0.049 31.586,-4.634 38.51,-7.556 2.037,-0.922 1.826,-2.033 -0.76,-0.986 C 22.2,55.542 13.302,56.845 -2.173,57.181 -24.275,57.657 -65.189,48.855 -63.58,26.158 -62.791,15.149 -40.577,-0.605 0,0"
             style="fill:#000000;fill-opacity:1;fill-rule:nonzero;stroke:none"
             id="path54"
             inkscape:connector-curvature="0" />
        </g>
        <g
           id="g56"
           transform="matrix(1.25,0,0,-1.25,145.87431,344.38647)"
           style="fill:#000000">
          <path
             d="m 0,0 c 13.403,-20.968 47.534,-25.902 66.272,-25.479 36.297,0.882 64.704,14.452 62.237,34.631 -4.259,34.227 -74.698,39.534 -104.835,21.233 -1.065,-0.716 -1.781,-2.157 0.798,-0.803 17.461,7.53 22.663,8.5 40.769,9.398 59.244,2.226 87.615,-50.219 0.747,-52.282 C 41.443,-13.936 4.889,-3.101 -1.725,16.609 -4.018,11.642 -1.967,3.744 0,0"
             style="fill:#000000;fill-opacity:1;fill-rule:nonzero;stroke:none"
             id="path58"
             inkscape:connector-curvature="0" />
        </g>
      </g>
      <text
         transform="scale(1.2130327,0.82438008)"
         sodipodi:linespacing="125%"
         id="text4800"
         y="600.99255"
         x="97.935593"
         style="font-style:normal;font-weight:normal;font-size:19.834198px;line-height:125%;font-family:sans-serif;letter-spacing:0px;word-spacing:0px;fill:#000000;fill-opacity:1;stroke:none;stroke-width:1px;stroke-linecap:butt;stroke-linejoin:miter;stroke-opacity:1"
         xml:space="preserve"><tspan
           style="font-style:normal;font-variant:normal;font-weight:300;font-stretch:normal;font-size:79.33679199px;font-family:'.Geeza Pro Interface';-inkscape-font-specification:'.Geeza Pro Interface Light'"
           y="600.99255"
           x="97.935593"
           id="tspan4802"
           sodipodi:role="line">HUB</tspan></text>
    </g>
    <g
       id="g4826"
       transform="matrix(0.06054054,0,0,0.06054054,36.565153,667.086)"
       inkscape:export-filename="/Users/sodax/Documents/Bitbucket/analytics-hub/analytics-hub/addin/app/images/icon-16.png"
       inkscape:export-xdpi="90"
       inkscape:export-ydpi="90">
      <rect
         style="opacity:1;fill:#e6e6e6;fill-opacity:1;stroke:none;stroke-width:1;stroke-miterlimit:4;stroke-dasharray:none;stroke-dashoffset:0;stroke-opacity:1"
         id="rect4828"
         width="264.28571"
         height="264.28571"
         x="85.714287"
         y="242.3622" />
      <g
         id="g4830"
         transform="matrix(1.1654667,0,0,1.1654667,-39.856912,-43.704194)">
        <g
           style="fill:#000000"
           transform="matrix(1.25,0,0,-1.25,146.21181,378.6351)"
           id="g4832">
          <path
             inkscape:connector-curvature="0"
             id="path4834"
             style="fill:#000000;fill-opacity:1;fill-rule:nonzero;stroke:none"
             d="m 0,0 c 10.361,-17.656 41.476,-25.036 66.814,-24.444 35.18,0.854 64.556,14.59 62.112,31.293 -0.488,3.351 -1.492,5.333 -4.973,7.783 C 131.623,-1.235 94.147,-11.342 66.657,-12.014 42.75,-12.643 6.335,-5.343 -1.763,15.766 -4.032,11.168 -1.683,2.887 0,0" />
        </g>
        <g
           style="fill:#000000"
           transform="matrix(1.25,0,0,-1.25,231.88869,329.13247)"
           id="g4836">
          <path
             inkscape:connector-curvature="0"
             id="path4838"
             style="fill:#000000;fill-opacity:1;fill-rule:nonzero;stroke:none"
             d="M 0,0 C 15.196,0.082 26.531,2.366 36.535,6.615 37.476,2.509 37.183,-3.167 35.49,-4.474 33.577,-6.701 27.366,-8.706 24.82,-9.267 17.458,-10.945 8.868,-12.532 -0.073,-12.68 c -47.845,0.538 -70.837,20.693 -71.198,38.316 -0.38,20.055 27.439,33.16 69.185,33.275 17.883,0.049 31.586,-4.634 38.51,-7.556 2.037,-0.922 1.826,-2.033 -0.76,-0.986 C 22.2,55.542 13.302,56.845 -2.173,57.181 -24.275,57.657 -65.189,48.855 -63.58,26.158 -62.791,15.149 -40.577,-0.605 0,0" />
        </g>
        <g
           style="fill:#000000"
           transform="matrix(1.25,0,0,-1.25,145.87431,344.38647)"
           id="g4840">
          <path
             inkscape:connector-curvature="0"
             id="path4842"
             style="fill:#000000;fill-opacity:1;fill-rule:nonzero;stroke:none"
             d="m 0,0 c 13.403,-20.968 47.534,-25.902 66.272,-25.479 36.297,0.882 64.704,14.452 62.237,34.631 -4.259,34.227 -74.698,39.534 -104.835,21.233 -1.065,-0.716 -1.781,-2.157 0.798,-0.803 17.461,7.53 22.663,8.5 40.769,9.398 59.244,2.226 87.615,-50.219 0.747,-52.282 C 41.443,-13.936 4.889,-3.101 -1.725,16.609 -4.018,11.642 -1.967,3.744 0,0" />
        </g>
      </g>
      <text
         xml:space="preserve"
         style="font-style:normal;font-weight:normal;font-size:19.834198px;line-height:125%;font-family:sans-serif;letter-spacing:0px;word-spacing:0px;fill:#000000;fill-opacity:1;stroke:none;stroke-width:1px;stroke-linecap:butt;stroke-linejoin:miter;stroke-opacity:1"
         x="97.935593"
         y="600.99255"
         id="text4844"
         sodipodi:linespacing="125%"
         transform="scale(1.2130327,0.82438008)"><tspan
           sodipodi:role="line"
           id="tspan4846"
           x="97.935593"
           y="600.99255"
           style="font-style:normal;font-variant:normal;font-weight:300;font-stretch:normal;font-size:79.33679199px;font-family:'.Geeza Pro Interface';-inkscape-font-specification:'.Geeza Pro Interface Light'">HUB</tspan></text>
    </g>
    <g
       transform="matrix(0.07189189,0,0,0.07189189,66.90691,661.08232)"
       id="g4848"
       inkscape:export-filename="/Users/sodax/Documents/Bitbucket/analytics-hub/analytics-hub/addin/app/images/icon-19.png"
       inkscape:export-xdpi="90"
       inkscape:export-ydpi="90">
      <rect
         y="242.3622"
         x="85.714287"
         height="264.28571"
         width="264.28571"
         id="rect4850"
         style="opacity:1;fill:#e6e6e6;fill-opacity:1;stroke:none;stroke-width:1;stroke-miterlimit:4;stroke-dasharray:none;stroke-dashoffset:0;stroke-opacity:1" />
      <g
         transform="matrix(1.1654667,0,0,1.1654667,-39.856912,-43.704194)"
         id="g4852">
        <g
           id="g4854"
           transform="matrix(1.25,0,0,-1.25,146.21181,378.6351)"
           style="fill:#000000">
          <path
             d="m 0,0 c 10.361,-17.656 41.476,-25.036 66.814,-24.444 35.18,0.854 64.556,14.59 62.112,31.293 -0.488,3.351 -1.492,5.333 -4.973,7.783 C 131.623,-1.235 94.147,-11.342 66.657,-12.014 42.75,-12.643 6.335,-5.343 -1.763,15.766 -4.032,11.168 -1.683,2.887 0,0"
             style="fill:#000000;fill-opacity:1;fill-rule:nonzero;stroke:none"
             id="path4856"
             inkscape:connector-curvature="0" />
        </g>
        <g
           id="g4858"
           transform="matrix(1.25,0,0,-1.25,231.88869,329.13247)"
           style="fill:#000000">
          <path
             d="M 0,0 C 15.196,0.082 26.531,2.366 36.535,6.615 37.476,2.509 37.183,-3.167 35.49,-4.474 33.577,-6.701 27.366,-8.706 24.82,-9.267 17.458,-10.945 8.868,-12.532 -0.073,-12.68 c -47.845,0.538 -70.837,20.693 -71.198,38.316 -0.38,20.055 27.439,33.16 69.185,33.275 17.883,0.049 31.586,-4.634 38.51,-7.556 2.037,-0.922 1.826,-2.033 -0.76,-0.986 C 22.2,55.542 13.302,56.845 -2.173,57.181 -24.275,57.657 -65.189,48.855 -63.58,26.158 -62.791,15.149 -40.577,-0.605 0,0"
             style="fill:#000000;fill-opacity:1;fill-rule:nonzero;stroke:none"
             id="path4860"
             inkscape:connector-curvature="0" />
        </g>
        <g
           id="g4862"
           transform="matrix(1.25,0,0,-1.25,145.87431,344.38647)"
           style="fill:#000000">
          <path
             d="m 0,0 c 13.403,-20.968 47.534,-25.902 66.272,-25.479 36.297,0.882 64.704,14.452 62.237,34.631 -4.259,34.227 -74.698,39.534 -104.835,21.233 -1.065,-0.716 -1.781,-2.157 0.798,-0.803 17.461,7.53 22.663,8.5 40.769,9.398 59.244,2.226 87.615,-50.219 0.747,-52.282 C 41.443,-13.936 4.889,-3.101 -1.725,16.609 -4.018,11.642 -1.967,3.744 0,0"
             style="fill:#000000;fill-opacity:1;fill-rule:nonzero;stroke:none"
             id="path4864"
             inkscape:connector-curvature="0" />
        </g>
      </g>
      <text
         transform="scale(1.2130327,0.82438008)"
         sodipodi:linespacing="125%"
         id="text4866"
         y="600.99255"
         x="97.935593"
         style="font-style:normal;font-weight:normal;font-size:19.834198px;line-height:125%;font-family:sans-serif;letter-spacing:0px;word-spacing:0px;fill:#000000;fill-opacity:1;stroke:none;stroke-width:1px;stroke-linecap:butt;stroke-linejoin:miter;stroke-opacity:1"
         xml:space="preserve"><tspan
           style="font-style:normal;font-variant:normal;font-weight:300;font-stretch:normal;font-size:79.33679199px;font-family:'.Geeza Pro Interface';-inkscape-font-specification:'.Geeza Pro Interface Light'"
           y="600.99255"
           x="97.935593"
           id="tspan4868"
           sodipodi:role="line">HUB</tspan></text>
    </g>
    <g
       id="g4870"
       transform="matrix(0.14378379,0,0,0.14378379,104.79679,624.65844)"
       inkscape:export-filename="/Users/sodax/Documents/Bitbucket/analytics-hub/analytics-hub/addin/app/images/icon-38.png"
       inkscape:export-xdpi="90"
       inkscape:export-ydpi="90">
      <rect
         style="opacity:1;fill:#e6e6e6;fill-opacity:1;stroke:none;stroke-width:1;stroke-miterlimit:4;stroke-dasharray:none;stroke-dashoffset:0;stroke-opacity:1"
         id="rect4872"
         width="264.28571"
         height="264.28571"
         x="85.714287"
         y="242.3622" />
      <g
         id="g4874"
         transform="matrix(1.1654667,0,0,1.1654667,-39.856912,-43.704194)">
        <g
           style="fill:#000000"
           transform="matrix(1.25,0,0,-1.25,146.21181,378.6351)"
           id="g4876">
          <path
             inkscape:connector-curvature="0"
             id="path4878"
             style="fill:#000000;fill-opacity:1;fill-rule:nonzero;stroke:none"
             d="m 0,0 c 10.361,-17.656 41.476,-25.036 66.814,-24.444 35.18,0.854 64.556,14.59 62.112,31.293 -0.488,3.351 -1.492,5.333 -4.973,7.783 C 131.623,-1.235 94.147,-11.342 66.657,-12.014 42.75,-12.643 6.335,-5.343 -1.763,15.766 -4.032,11.168 -1.683,2.887 0,0" />
        </g>
        <g
           style="fill:#000000"
           transform="matrix(1.25,0,0,-1.25,231.88869,329.13247)"
           id="g4880">
          <path
             inkscape:connector-curvature="0"
             id="path4882"
             style="fill:#000000;fill-opacity:1;fill-rule:nonzero;stroke:none"
             d="M 0,0 C 15.196,0.082 26.531,2.366 36.535,6.615 37.476,2.509 37.183,-3.167 35.49,-4.474 33.577,-6.701 27.366,-8.706 24.82,-9.267 17.458,-10.945 8.868,-12.532 -0.073,-12.68 c -47.845,0.538 -70.837,20.693 -71.198,38.316 -0.38,20.055 27.439,33.16 69.185,33.275 17.883,0.049 31.586,-4.634 38.51,-7.556 2.037,-0.922 1.826,-2.033 -0.76,-0.986 C 22.2,55.542 13.302,56.845 -2.173,57.181 -24.275,57.657 -65.189,48.855 -63.58,26.158 -62.791,15.149 -40.577,-0.605 0,0" />
        </g>
        <g
           style="fill:#000000"
           transform="matrix(1.25,0,0,-1.25,145.87431,344.38647)"
           id="g4884">
          <path
             inkscape:connector-curvature="0"
             id="path4886"
             style="fill:#000000;fill-opacity:1;fill-rule:nonzero;stroke:none"
             d="m 0,0 c 13.403,-20.968 47.534,-25.902 66.272,-25.479 36.297,0.882 64.704,14.452 62.237,34.631 -4.259,34.227 -74.698,39.534 -104.835,21.233 -1.065,-0.716 -1.781,-2.157 0.798,-0.803 17.461,7.53 22.663,8.5 40.769,9.398 59.244,2.226 87.615,-50.219 0.747,-52.282 C 41.443,-13.936 4.889,-3.101 -1.725,16.609 -4.018,11.642 -1.967,3.744 0,0" />
        </g>
      </g>
      <text
         xml:space="preserve"
         style="font-style:normal;font-weight:normal;font-size:19.834198px;line-height:125%;font-family:sans-serif;letter-spacing:0px;word-spacing:0px;fill:#000000;fill-opacity:1;stroke:none;stroke-width:1px;stroke-linecap:butt;stroke-linejoin:miter;stroke-opacity:1"
         x="97.935593"
         y="600.99255"
         id="text4888"
         sodipodi:linespacing="125%"
         transform="scale(1.2130327,0.82438008)"><tspan
           sodipodi:role="line"
           id="tspan4890"
           x="97.935593"
           y="600.99255"
           style="font-style:normal;font-variant:normal;font-weight:300;font-stretch:normal;font-size:79.33679199px;font-family:'.Geeza Pro Interface';-inkscape-font-specification:'.Geeza Pro Interface Light'">HUB</tspan></text>
    </g>
    <g
       transform="matrix(0.48432434,0,0,0.48432434,139.63046,452.12428)"
       id="g4892"
       inkscape:export-filename="/Users/sodax/Documents/Bitbucket/analytics-hub/analytics-hub/addin/app/images/icon-128.png"
       inkscape:export-xdpi="90"
       inkscape:export-ydpi="90">
      <rect
         y="242.3622"
         x="85.714287"
         height="264.28571"
         width="264.28571"
         id="rect4894"
         style="opacity:1;fill:#e6e6e6;fill-opacity:1;stroke:none;stroke-width:1;stroke-miterlimit:4;stroke-dasharray:none;stroke-dashoffset:0;stroke-opacity:1" />
      <g
         transform="matrix(1.1654667,0,0,1.1654667,-39.856912,-43.704194)"
         id="g4896">
        <g
           id="g4898"
           transform="matrix(1.25,0,0,-1.25,146.21181,378.6351)"
           style="fill:#000000">
          <path
             d="m 0,0 c 10.361,-17.656 41.476,-25.036 66.814,-24.444 35.18,0.854 64.556,14.59 62.112,31.293 -0.488,3.351 -1.492,5.333 -4.973,7.783 C 131.623,-1.235 94.147,-11.342 66.657,-12.014 42.75,-12.643 6.335,-5.343 -1.763,15.766 -4.032,11.168 -1.683,2.887 0,0"
             style="fill:#000000;fill-opacity:1;fill-rule:nonzero;stroke:none"
             id="path4900"
             inkscape:connector-curvature="0" />
        </g>
        <g
           id="g4902"
           transform="matrix(1.25,0,0,-1.25,231.88869,329.13247)"
           style="fill:#000000">
          <path
             d="M 0,0 C 15.196,0.082 26.531,2.366 36.535,6.615 37.476,2.509 37.183,-3.167 35.49,-4.474 33.577,-6.701 27.366,-8.706 24.82,-9.267 17.458,-10.945 8.868,-12.532 -0.073,-12.68 c -47.845,0.538 -70.837,20.693 -71.198,38.316 -0.38,20.055 27.439,33.16 69.185,33.275 17.883,0.049 31.586,-4.634 38.51,-7.556 2.037,-0.922 1.826,-2.033 -0.76,-0.986 C 22.2,55.542 13.302,56.845 -2.173,57.181 -24.275,57.657 -65.189,48.855 -63.58,26.158 -62.791,15.149 -40.577,-0.605 0,0"
             style="fill:#000000;fill-opacity:1;fill-rule:nonzero;stroke:none"
             id="path4904"
             inkscape:connector-curvature="0" />
        </g>
        <g
           id="g4906"
           transform="matrix(1.25,0,0,-1.25,145.87431,344.38647)"
           style="fill:#000000">
          <path
             d="m 0,0 c 13.403,-20.968 47.534,-25.902 66.272,-25.479 36.297,0.882 64.704,14.452 62.237,34.631 -4.259,34.227 -74.698,39.534 -104.835,21.233 -1.065,-0.716 -1.781,-2.157 0.798,-0.803 17.461,7.53 22.663,8.5 40.769,9.398 59.244,2.226 87.615,-50.219 0.747,-52.282 C 41.443,-13.936 4.889,-3.101 -1.725,16.609 -4.018,11.642 -1.967,3.744 0,0"
             style="fill:#000000;fill-opacity:1;fill-rule:nonzero;stroke:none"
             id="path4908"
             inkscape:connector-curvature="0" />
        </g>
      </g>
      <text
         transform="scale(1.2130327,0.82438008)"
         sodipodi:linespacing="125%"
         id="text4910"
         y="600.99255"
         x="97.935593"
         style="font-style:normal;font-weight:normal;font-size:19.834198px;line-height:125%;font-family:sans-serif;letter-spacing:0px;word-spacing:0px;fill:#000000;fill-opacity:1;stroke:none;stroke-width:1px;stroke-linecap:butt;stroke-linejoin:miter;stroke-opacity:1"
         xml:space="preserve"><tspan
           style="font-style:normal;font-variant:normal;font-weight:300;font-stretch:normal;font-size:79.33679199px;font-family:'.Geeza Pro Interface';-inkscape-font-specification:'.Geeza Pro Interface Light'"
           y="600.99255"
           x="97.935593"
           id="tspan4912"
           sodipodi:role="line">HUB</tspan></text>
    </g>
    <rect
       y="617.50616"
       x="400.85214"
       height="80"
       width="80"
       id="rect4916"
       style="opacity:1;fill:#e6e6e6;fill-opacity:1;stroke:none;stroke-width:1;stroke-miterlimit:4;stroke-dasharray:none;stroke-dashoffset:0;stroke-opacity:1"
       inkscape:export-filename="/Users/sodax/Documents/Bitbucket/analytics-hub/analytics-hub/addin/app/images/logo-purecloud.png"
       inkscape:export-xdpi="90"
       inkscape:export-ydpi="90" />
    <g
       transform="matrix(0.28548492,0,0,0.28548492,377.98504,555.28276)"
       id="g4918">
      <g
         id="g4920"
         transform="matrix(1.25,0,0,-1.25,146.21181,378.6351)"
         style="fill:#000000">
        <path
           d="m 0,0 c 10.361,-17.656 41.476,-25.036 66.814,-24.444 35.18,0.854 64.556,14.59 62.112,31.293 -0.488,3.351 -1.492,5.333 -4.973,7.783 C 131.623,-1.235 94.147,-11.342 66.657,-12.014 42.75,-12.643 6.335,-5.343 -1.763,15.766 -4.032,11.168 -1.683,2.887 0,0"
           style="fill:#000000;fill-opacity:1;fill-rule:nonzero;stroke:none"
           id="path4922"
           inkscape:connector-curvature="0" />
      </g>
      <g
         id="g4924"
         transform="matrix(1.25,0,0,-1.25,231.88869,329.13247)"
         style="fill:#000000">
        <path
           d="M 0,0 C 15.196,0.082 26.531,2.366 36.535,6.615 37.476,2.509 37.183,-3.167 35.49,-4.474 33.577,-6.701 27.366,-8.706 24.82,-9.267 17.458,-10.945 8.868,-12.532 -0.073,-12.68 c -47.845,0.538 -70.837,20.693 -71.198,38.316 -0.38,20.055 27.439,33.16 69.185,33.275 17.883,0.049 31.586,-4.634 38.51,-7.556 2.037,-0.922 1.826,-2.033 -0.76,-0.986 C 22.2,55.542 13.302,56.845 -2.173,57.181 -24.275,57.657 -65.189,48.855 -63.58,26.158 -62.791,15.149 -40.577,-0.605 0,0"
           style="fill:#000000;fill-opacity:1;fill-rule:nonzero;stroke:none"
           id="path4926"
           inkscape:connector-curvature="0" />
      </g>
      <g
         id="g4928"
         transform="matrix(1.25,0,0,-1.25,145.87431,344.38647)"
         style="fill:#000000">
        <path
           d="m 0,0 c 13.403,-20.968 47.534,-25.902 66.272,-25.479 36.297,0.882 64.704,14.452 62.237,34.631 -4.259,34.227 -74.698,39.534 -104.835,21.233 -1.065,-0.716 -1.781,-2.157 0.798,-0.803 17.461,7.53 22.663,8.5 40.769,9.398 59.244,2.226 87.615,-50.219 0.747,-52.282 C 41.443,-13.936 4.889,-3.101 -1.725,16.609 -4.018,11.642 -1.967,3.744 0,0"
           style="fill:#000000;fill-opacity:1;fill-rule:nonzero;stroke:none"
           id="path4930"
           inkscape:connector-curvature="0" />
      </g>
    </g>
    <text
       xml:space="preserve"
       style="font-style:normal;font-weight:normal;font-size:12.30626011px;line-height:125%;font-family:sans-serif;letter-spacing:0px;word-spacing:0px;fill:#000000;fill-opacity:1;stroke:none;stroke-width:1px;stroke-linecap:butt;stroke-linejoin:miter;stroke-opacity:1"
       x="407.41763"
       y="689.73773"
       id="text4936"
       sodipodi:linespacing="125%"><tspan
         sodipodi:role="line"
         id="tspan4938"
         x="407.41763"
         y="689.73773"
         style="font-style:normal;font-variant:normal;font-weight:normal;font-stretch:normal;font-family:Silom;-inkscape-font-specification:Silom">PureCloud</tspan></text>
  </g>
</svg>
